<?xml version="1.0" encoding="iso-8859-1"?>
<!-- Generator: Adobe Illustrator 19.0.0, SVG Export Plug-In . SVG Version: 6.00 Build 0)  -->
<svg version="1.1" id="Layer_1" xmlns="http://www.w3.org/2000/svg" xmlns:xlink="http://www.w3.org/1999/xlink" x="0px" y="0px"
	 viewBox="0 0 511.999 511.999" style="enable-background:new 0 0 511.999 511.999;" xml:space="preserve">
<circle style="fill:#D7F3FF;" cx="256.003" cy="256.003" r="249.99"/>
<g>
	<path style="fill:#999999;" d="M420.756,378.985h52.925c-13.902,24.568-31.844,46.539-52.925,65.011v-42.162V378.985z"/>
	<path style="fill:#999999;" d="M347.556,488.202l0.168,0.421c-13.096,5.171-26.733,9.26-40.815,12.182v-47.261h40.647V488.202z"/>
</g>
<g>
	<path style="fill:#CCCCCC;" d="M420.756,401.834v42.162c-21.418,18.796-46.082,33.985-73.032,44.627l-0.168-0.421v-34.658v-92.598
		h41.934v40.887L420.756,401.834L420.756,401.834z"/>
	<path style="fill:#CCCCCC;" d="M205.087,466.773v34.021c-22.476-4.642-43.846-12.314-63.664-22.56v-11.46H205.087z"/>
	<path style="fill:#CCCCCC;" d="M99.67,393.235v57.832c-20.42-16.367-38.218-35.897-52.636-57.832H99.67z"/>
</g>
<path style="fill:#999999;" d="M141.423,466.773v11.46c-14.852-7.66-28.826-16.776-41.753-27.166v-57.832V371.77h41.753V466.773z"/>
<g>
	<path style="fill:#E6E6E6;" d="M306.909,453.544v47.261c-6.746,1.395-13.601,2.513-20.54,3.355v-74.319h10.114h10.426V453.544z"/>
	<polygon style="fill:#E6E6E6;" points="286.369,429.842 277.049,429.842 277.049,429.625 277.049,391.816 286.862,391.816 
		296.483,391.816 296.483,429.842 	"/>
	<polygon style="fill:#E6E6E6;" points="277.049,391.816 267.621,391.816 267.621,389.988 267.621,359.527 282.858,359.527 
		286.862,359.527 286.862,391.816 	"/>
	<polygon style="fill:#E6E6E6;" points="225.639,429.842 215.514,429.842 215.514,391.816 225.134,391.816 234.959,391.816 
		234.959,429.625 234.959,429.842 	"/>
	<path style="fill:#E6E6E6;" d="M225.639,429.842v74.319c-6.939-0.842-13.793-1.96-20.552-3.367v-34.021v-36.931h10.426H225.639z"/>
</g>
<g>
	<path style="fill:#FFFFFF;" d="M286.369,429.842v74.319c-6.674,0.806-13.433,1.359-20.251,1.623v-75.942h10.931H286.369z"/>
	<path style="fill:#FFFFFF;" d="M266.118,429.842v75.942c-3.355,0.132-6.722,0.204-10.114,0.204c-3.391,0-6.758-0.072-10.126-0.204
		v-75.942h10.126H266.118z"/>
	<path style="fill:#FFFFFF;" d="M245.879,429.842v75.942c-6.819-0.265-13.565-0.818-20.239-1.623v-74.319h9.32H245.879z"/>
	<polygon style="fill:#FFFFFF;" points="266.118,429.842 256.004,429.842 256.004,429.625 256.004,391.816 267.621,391.816 
		277.049,391.816 277.049,429.625 277.049,429.842 	"/>
	<polygon style="fill:#FFFFFF;" points="245.879,429.842 234.959,429.842 234.959,429.625 234.959,391.816 244.375,391.816 
		256.004,391.816 256.004,429.625 256.004,429.842 	"/>
	<polygon style="fill:#FFFFFF;" points="256.004,391.816 244.375,391.816 244.375,389.988 244.375,359.527 246.384,359.527 
		265.625,359.527 267.621,359.527 267.621,389.988 267.621,391.816 	"/>
</g>
<g>
	<polygon style="fill:#E6E6E6;" points="234.959,391.816 225.134,391.816 225.134,359.527 229.139,359.527 244.375,359.527 
		244.375,389.988 244.375,391.816 	"/>
	<polygon style="fill:#E6E6E6;" points="244.375,359.527 229.139,359.527 229.139,197 233.949,197 246.384,197 246.384,359.527 	"/>
	<polygon style="fill:#E6E6E6;" points="267.621,359.527 265.625,359.527 265.625,197 278.047,197 282.858,197 282.858,359.527 	"/>
</g>
<g>
	<polygon style="fill:#FFFFFF;" points="265.625,197 265.625,359.527 246.384,359.527 246.384,197 256.004,197 	"/>
	<path style="fill:#FFFFFF;" d="M256.004,58.296l14.936,94.606l-0.914,0.228c-3.812-3.151-8.695-5.039-14.022-5.039
		c-5.7,0-10.907,2.165-14.828,5.724l-0.12-0.914L256.004,58.296z"/>
	<path style="fill:#FFFFFF;" d="M256.004,197h-9.621h-12.435v-26.865c0-6.47,2.79-12.278,7.227-16.319
		c3.92-3.56,9.127-5.724,14.828-5.724c5.327,0,10.21,1.888,14.022,5.039c4.894,4.041,8.021,10.162,8.021,17.004V197h-12.423H256.004
		z"/>
	<path style="fill:#FFFFFF;" d="M435.716,201.546c6.253,0,11.316,5.075,11.316,11.328s-5.063,11.316-11.316,11.316
		c-3.824,0-67.212,0-71.397,0c-6.253,0-11.328-5.063-11.328-11.316s5.075-11.328,11.328-11.328c0.625,0,1.239,0.072,1.84,0.168
		c-0.012-0.229-0.036-0.445-0.036-0.673c0-12.783,10.354-23.149,23.137-23.149c9.296,0,17.281,5.496,20.973,13.385
		c1.431-0.397,2.946-0.625,4.51-0.625c7.612,0,14.022,5.075,16.078,12.026C432.301,201.967,433.96,201.546,435.716,201.546z"/>
	<path style="fill:#FFFFFF;" d="M171.091,240.076c7.805,0,14.142,6.326,14.142,14.13c0,7.817-6.338,14.142-14.142,14.142
		c-5.231,0-84.396,0-89.171,0c-7.805,0-14.142-6.326-14.142-14.142c0-7.805,6.338-14.13,14.142-14.13
		c2.189,0,4.257,0.517,6.109,1.407c2.561-8.683,10.583-15.02,20.083-15.02c1.96,0,3.836,0.289,5.628,0.782
		c4.606-9.861,14.587-16.716,26.192-16.716c15.958,0,28.898,12.94,28.898,28.91c0,0.289-0.024,0.553-0.036,0.842
		C169.539,240.16,170.309,240.076,171.091,240.076z"/>
</g>
<g>
	<path style="fill:#333333;" d="M256.001,0C114.842,0,0,114.842,0,255.999s114.842,255.999,255.999,255.999
		s255.999-114.842,255.999-255.999S397.159,0,256.001,0z M256.001,12.026c134.528,0,243.974,109.446,243.974,243.974
		c0,42.357-10.858,82.222-29.924,116.973h-49.295c-3.32,0-6.013,2.693-6.013,6.013v16.836h-19.241v-34.875
		c0-3.32-2.693-6.013-6.013-6.013h-41.93c-3.32,0-6.013,2.693-6.013,6.013v86.585h-28.625v-17.69c0-3.32-2.693-6.013-6.013-6.013
		h-4.41v-32.017c0-3.32-2.693-6.013-6.013-6.013h-3.608V359.52c0-2.614-1.679-4.816-4.008-5.645V196.997
		c0-2.908-2.066-5.335-4.81-5.891V170.14c0-7.243-2.759-13.855-7.282-18.838l-14.765-93.475V24.629c0-3.32-2.693-6.013-6.013-6.013
		c-3.32,0-6.013,2.693-6.013,6.013v33.198l-14.766,93.475c-4.522,4.983-7.282,11.594-7.282,18.838v20.966
		c-2.744,0.557-4.81,2.984-4.81,5.891v156.881c-2.331,0.827-4.008,3.03-4.008,5.645v26.279h-3.608c-3.32,0-6.013,2.693-6.013,6.013
		v32.017h-4.413c-3.32,0-6.013,2.693-6.013,6.013v30.918h-51.637v-88.99c0-3.32-2.693-6.013-6.013-6.013H99.67
		c-3.32,0-6.013,2.693-6.013,6.013v15.449H50.4c-24.282-37.916-38.374-82.953-38.374-131.222
		C12.026,121.472,121.472,12.026,256.001,12.026z M135.411,468.026c-10.411-5.944-20.346-12.627-29.729-19.988v-70.255h29.729
		V468.026z M147.436,472.785h51.637v20.467c-18.073-4.336-35.369-10.69-51.637-18.808V472.785z M256.001,96.837l7.3,46.211
		c-2.329-0.628-4.774-0.969-7.3-0.969l0,0c-2.524,0-4.97,0.34-7.3,0.969L256.001,96.837z M259.608,203.009v150.499h-7.215V203.009
		H259.608z M261.612,365.534V385.8h-11.224v-20.266H261.612z M262.013,423.83v-26.004h9.019v26.004H262.013z M249.988,397.826
		v26.004h-9.019v-26.004H249.988z M283.058,423.83v-26.004h7.416v26.004H283.058z M273.637,385.8v-20.266h7.215V385.8H273.637z
		 M271.634,353.509V203.009h5.211v150.499H271.634z M239.966,170.14c0-8.841,7.193-16.034,16.034-16.034s16.034,7.193,16.034,16.034
		v20.844h-10.021v-18.439c0-3.32-2.693-6.013-6.013-6.013s-6.013,2.693-6.013,6.013v18.439h-10.021V170.14z M235.155,203.009h5.211
		v150.499h-5.211V203.009z M231.147,365.534h7.215V385.8h-7.215V365.534z M221.527,397.826h7.416v26.004h-7.416V397.826z
		 M211.1,435.856l8.526,0.001v61.404c-2.86-0.429-5.7-0.916-8.526-1.444V435.856z M231.652,435.857h8.214v63.57
		c-2.749-0.18-5.49-0.394-8.214-0.665V435.857z M280.356,435.857v62.905c-2.727,0.272-5.472,0.486-8.226,0.666v-63.57h8.226V435.857
		z M292.382,435.857l8.514-0.001v59.963c-2.822,0.527-5.659,1.013-8.514,1.442V435.857z M312.922,459.557h28.625v24.923
		c-9.287,3.489-18.842,6.425-28.625,8.773V459.557z M389.489,407.847h25.254v33.264c-18.254,15.677-38.845,28.697-61.171,38.477
		V366.959h29.904v34.875C383.477,405.155,386.168,407.847,389.489,407.847z M58.635,399.246h35.022v38.706
		C80.659,426.341,68.91,413.364,58.635,399.246z M251.891,499.921v-64.064h8.214v64.064c-1.367,0.023-2.732,0.052-4.104,0.052
		C254.626,499.974,253.26,499.944,251.891,499.921z M426.769,430.062v-45.064h36.219
		C452.711,401.428,440.536,416.552,426.769,430.062z"/>
	<path style="fill:#333333;" d="M364.315,230.203h71.398c9.557,0,17.333-7.775,17.333-17.333c0-9.558-7.775-17.333-17.333-17.333
		c-0.507,0-1.011,0.022-1.512,0.066c-4.299-7.034-12.312-11.459-20.827-10.923c-5.373-7.894-14.406-12.797-24.106-12.797
		c-14.342,0-26.298,10.407-28.714,24.066c-7.754,1.723-13.57,8.656-13.57,16.921C346.982,222.428,354.757,230.203,364.315,230.203z
		 M364.315,207.565c0.239,0,0.524,0.028,0.869,0.084c1.771,0.289,3.579-0.227,4.929-1.408c1.35-1.181,2.103-2.904,2.052-4.698
		c-0.005-0.171-0.016-0.34-0.031-0.58c0.046-9.41,7.715-17.051,17.134-17.051c6.615,0,12.706,3.892,15.516,9.914
		c1.243,2.665,4.232,4.038,7.064,3.251c5.864-1.634,11.599,1.856,13.203,7.302c0.499,1.692,1.715,3.081,3.328,3.797
		c1.614,0.717,3.459,0.689,5.047-0.077c0.731-0.351,1.502-0.53,2.287-0.53c2.926,0,5.307,2.38,5.307,5.307
		c0,2.927-2.38,5.307-5.307,5.307h-71.398c-2.926,0-5.307-2.38-5.307-5.307C359.008,209.947,361.388,207.565,364.315,207.565z"/>
	<path style="fill:#333333;" d="M81.919,274.361h89.172c11.111,0,20.149-9.04,20.149-20.15c0-9.956-7.259-18.249-16.761-19.865
		c-2.474-16.849-17.025-29.827-34.551-29.827c-11.908,0-22.975,6.169-29.345,16.046c-10.71-1.022-20.883,4.64-25.975,13.677
		c-0.886-0.12-1.782-0.179-2.688-0.179c-11.111,0-20.149,9.04-20.149,20.149C61.77,265.323,70.808,274.361,81.919,274.361z
		 M81.919,246.088c1.209,0,2.388,0.273,3.507,0.811c1.589,0.765,3.435,0.794,5.047,0.077c1.613-0.717,2.828-2.104,3.328-3.797
		c2.23-7.565,10.236-12.396,18.327-10.139c2.834,0.791,5.82-0.584,7.065-3.249c3.754-8.046,11.893-13.246,20.735-13.246
		c12.625,0,22.896,10.271,22.897,22.816l-0.008,0.13c-0.014,0.207-0.028,0.414-0.032,0.624c-0.049,1.793,0.705,3.513,2.055,4.692
		c1.35,1.18,3.158,1.699,4.927,1.405c0.51-0.083,0.944-0.124,1.325-0.124c4.48,0,8.123,3.644,8.123,8.123s-3.644,8.125-8.123,8.125
		H81.919c-4.48,0-8.123-3.645-8.123-8.125C73.796,249.732,77.439,246.088,81.919,246.088z"/>
</g>
<g>
</g>
<g>
</g>
<g>
</g>
<g>
</g>
<g>
</g>
<g>
</g>
<g>
</g>
<g>
</g>
<g>
</g>
<g>
</g>
<g>
</g>
<g>
</g>
<g>
</g>
<g>
</g>
<g>
</g>
</svg>
